# xmcd
#
# Track frame offsets:
#	150
#	14017
#	27387
#	46377
#	58990
#	74497
#	88057
#	105345
#	119822
#	136617
#	150427
#	167732
#
# Disc length: 2422 seconds
#
# Revision: 0
# Processed by: cddbd v1.5.2PL0 Copyright (c) Steve Scherf et al.
# Submitted via: audiograbber 1.83.01
#
DISCID=a409740c
DTITLE=Various Artist - Love Can't Ever Get Better Than This
DYEAR=1996
DGENRE=Country
TTITLE0=George Jones - Loving You Could Never Be Better
TTITLE1=Mickey Gilley - True Love Ways
TTITLE2=Exile - I Can't Get Close Enough
TTITLE3=Charley McClain - The Very Best Is You
TTITLE4=T.G. Sheppard - You're My First Lady
TTITLE5=Willie Nelson - I Love You A Thousand Ways
TTITLE6=Ray Price - You're The Best Thing That Ever Happened To Me
TTITLE7=David Houston and Barbara Mandrell - I Love You, I Love You
TTITLE8=Janie Frickie - Always Have, Always Will
TTITLE9=Larry Gatlin and The Gatlin Bros. - Love Of A Lifetime
TTITLE10=Ricky Skaggs and Sharon White - Love Can't Ever Get Better Than This
TTITLE11=Ricky Van Shelton - I'll Leave This World Loving You
EXTD=
EXTT0=
EXTT1=
EXTT2=
EXTT3=
EXTT4=
EXTT5=
EXTT6=
EXTT7=
EXTT8=
EXTT9=
EXTT10=
EXTT11=
PLAYORDER=
